HIERARCHY
ROOT Hips
{
 OFFSET 0.000000 0.000000 0.000000
 CHANNELS 6 Xposition Yposition Zposition Yrotation Xrotation Zrotation
 JOINT Chest
 {
  OFFSET 0.000000 9.585900 0.002600
  CHANNELS 3 Yrotation Xrotation Zrotation
  JOINT Chest2
  {
   OFFSET 0.000000 9.601200 -0.005300
   CHANNELS 3 Yrotation Xrotation Zrotation
   JOINT Chest3
   {
    OFFSET 0.000000 9.561800 0.000000
    CHANNELS 3 Yrotation Xrotation Zrotation
    JOINT Chest4
    {
     OFFSET 0.000000 9.552100 0.000000
     CHANNELS 3 Yrotation Xrotation Zrotation
     JOINT Neck
     {
      OFFSET 0.000000 14.453000 0.000000
      CHANNELS 3 Yrotation Xrotation Zrotation
      JOINT Head
      {
       OFFSET 0.000000 8.936500 -0.011300
       CHANNELS 3 Yrotation Xrotation Zrotation
       End Site
       {
        OFFSET 0.000000 17.073600 -0.006000
       }
      }
     }
     JOINT RightCollar
     {
      OFFSET -2.921100 9.558500 0.000000
      CHANNELS 3 Yrotation Xrotation Zrotation
      JOINT RightShoulder
      {
       OFFSET -13.519700 0.000000 0.000000
       CHANNELS 3 Yrotation Xrotation Zrotation
       JOINT RightElbow
       {
        OFFSET 0.000000 -29.696600 0.000000
        CHANNELS 3 Yrotation Xrotation Zrotation
        JOINT RightWrist
        {
         OFFSET 0.000000 -24.004700 0.000000
         CHANNELS 3 Yrotation Xrotation Zrotation
         End Site
         {
          OFFSET 0.000000 -17.728500 0.000000
         }
        }
       }
      }
     }
     JOINT LeftCollar
     {
      OFFSET 2.921100 9.558500 0.000000
      CHANNELS 3 Yrotation Xrotation Zrotation
      JOINT LeftShoulder
      {
       OFFSET 13.519700 0.000000 0.000000
       CHANNELS 3 Yrotation Xrotation Zrotation
       JOINT LeftElbow
       {
        OFFSET 0.000000 -29.696600 0.000000
        CHANNELS 3 Yrotation Xrotation Zrotation
        JOINT LeftWrist
        {
         OFFSET 0.000000 -24.004700 0.000000
         CHANNELS 3 Yrotation Xrotation Zrotation
         End Site
         {
          OFFSET 0.000000 -17.728500 0.000000
         }
        }
       }
      }
     }
    }
   }
  }
 }
 JOINT RightHip
 {
  OFFSET -7.771700 -0.012900 -0.001300
  CHANNELS 3 Yrotation Xrotation Zrotation
  JOINT RightKnee
  {
   OFFSET 0.000000 -40.869800 0.001200
   CHANNELS 3 Yrotation Xrotation Zrotation
   JOINT RightAnkle
   {
    OFFSET 0.000000 -39.717900 0.002100
    CHANNELS 3 Yrotation Xrotation Zrotation
    JOINT RightToe
    {
     OFFSET 0.000000 -4.965400 11.033500
     CHANNELS 3 Yrotation Xrotation Zrotation
     End Site
     {
      OFFSET 0.000000 -1.423100 5.872300
     }
    }
   }
  }
 }
 JOINT LeftHip
 {
  OFFSET 7.771700 -0.012900 -0.001300
  CHANNELS 3 Yrotation Xrotation Zrotation
  JOINT LeftKnee
  {
   OFFSET 0.000000 -40.869800 0.001200
   CHANNELS 3 Yrotation Xrotation Zrotation
   JOINT LeftAnkle
   {
    OFFSET 0.000000 -39.717900 0.002100
    CHANNELS 3 Yrotation Xrotation Zrotation
    JOINT LeftToe
    {
     OFFSET 0.000000 -4.965400 11.033500
     CHANNELS 3 Yrotation Xrotation Zrotation
     End Site
     {
      OFFSET 0.000000 -1.423100 5.872300
     }
    }
   }
  }
 }
}
MOTION
Frames: 7
Frame Time: 0.008333
-206.454698 57.615843 -67.756961 159.793339 -7.920771 -0.196935 3.312947 6.162682 1.388963 0.144923 0.270708 0.025029 0.254356 0.474961 0.044393 3.247387 5.975391 0.716639 1.509668 18.692591 -2.405892 3.643794 -0.984495 -4.820783 1.472964 7.083147 0.285772 1.475197 -6.716605 -9.524089 -57.277689 -69.133804 97.845811 -1.321127 3.041889 -5.286529 -4.049260 7.438032 -1.350119 10.469562 -2.618850 6.378564 95.657539 -74.224043 -137.492127 -5.378557 8.665966 3.144476 -12.844689 -64.089642 6.904654 -35.490108 71.753869 -36.457928 -4.073177 -6.662806 -0.060394 -0.504260 0.742110 -0.191836 2.819590 -66.822876 16.023914 41.928045 66.583462 34.515430 -18.804377 -11.546653 3.611639 0.088991 -0.774824 0.010761
-206.467980 57.613989 -67.759918 159.865698 -7.944200 -0.217624 3.311307 6.192214 1.407135 0.146084 0.273325 0.025741 0.256330 0.479582 0.045554 3.257416 6.003420 0.730120 1.470060 18.643989 -2.378805 3.577811 -1.038717 -4.760099 1.430841 7.107873 0.287481 1.463902 -6.736169 -9.548775 -57.296521 -69.167245 97.839124 -1.327369 3.004994 -5.271658 -4.079123 7.481737 -1.355073 10.505504 -2.645556 6.370861 95.645739 -74.216068 -137.495270 -5.395961 8.644714 3.090625 -12.920430 -64.064194 6.909139 -35.521963 71.757407 -36.510839 -4.069952 -6.667149 -0.033694 -0.511137 0.736211 -0.200160 2.728419 -66.812666 16.026762 41.927460 66.574042 34.531054 -18.800531 -11.521637 3.605770 0.083897 -0.783239 0.020736
-206.480296 57.612697 -67.761291 159.916516 -7.959984 -0.243013 3.334281 6.223571 1.432741 0.147523 0.277246 0.026466 0.258876 0.486299 0.046790 3.267781 6.045871 0.743185 1.433013 18.580578 -2.350932 3.507207 -1.115712 -4.700662 1.410534 7.180019 0.299339 1.422401 -6.784948 -9.584097 -57.445472 -69.219660 97.953831 -1.309276 3.007140 -5.230995 -4.116051 7.512973 -1.355910 10.495530 -2.721519 6.357107 95.543744 -74.214227 -137.343449 -5.406951 8.623078 3.032580 -12.969638 -64.043430 6.905902 -35.516916 71.761112 -36.496219 -4.091565 -6.666551 -0.035682 -0.504566 0.729045 -0.203299 2.638728 -66.813749 16.050668 41.951659 66.568496 34.570122 -18.797723 -11.495621 3.605050 0.080723 -0.797681 0.020957
-206.493955 57.612465 -67.765871 159.979652 -7.993504 -0.253697 3.343643 6.282609 1.444157 0.149274 0.282422 0.027238 0.261889 0.495158 0.048205 3.277987 6.102211 0.757141 1.445798 18.549208 -2.291432 3.384894 -1.254437 -4.666097 1.385341 7.205449 0.296896 1.365155 -6.894628 -9.590314 -57.414118 -69.230738 97.893328 -1.278608 3.024718 -5.171969 -4.158323 7.532783 -1.357235 10.551974 -2.761195 6.334065 95.581733 -74.208630 -137.386101 -5.407586 8.594871 2.974168 -12.953911 -64.010624 6.811449 -35.516533 71.776201 -36.470540 -4.087623 -6.673951 -0.023938 -0.507852 0.726952 -0.209066 2.575085 -66.793896 16.031540 41.983977 66.559033 34.614988 -18.789499 -11.465499 3.605289 0.084054 -0.817523 0.021187
-206.504193 57.613429 -67.773013 160.072015 -8.054280 -0.278991 3.325221 6.376312 1.470441 0.151359 0.288782 0.028157 0.265361 0.506140 0.049836 3.288266 6.171624 0.773065 1.380779 18.449839 -2.290713 3.330757 -1.358877 -4.603831 1.357172 7.203660 0.280288 1.276398 -6.886299 -9.571299 -57.638395 -69.313259 98.100463 -1.226205 3.057973 -5.069909 -4.207047 7.539362 -1.362130 10.611202 -2.803394 6.306404 95.630368 -74.198897 -137.429231 -5.414070 8.547568 2.893658 -13.025760 -63.945928 6.785244 -35.544811 71.783062 -36.505469 -4.087519 -6.665433 -0.011489 -0.500523 0.706654 -0.205201 2.460573 -66.745765 16.039826 42.007556 66.550393 34.652212 -18.780812 -11.448018 3.604417 0.084117 -0.827160 0.020331
-206.516214 57.614095 -67.774513 160.116455 -8.088629 -0.294692 3.355231 6.447959 1.493460 0.153861 0.296400 0.029167 0.269544 0.519228 0.051622 3.300621 6.253475 0.789975 1.348229 18.385431 -2.262031 3.234059 -1.519056 -4.564219 1.334741 7.197357 0.256370 1.177216 -6.913326 -9.539263 -57.829800 -69.390567 98.255016 -1.203159 3.062837 -4.985481 -4.266140 7.530400 -1.365571 10.616546 -2.899216 6.279759 95.501777 -74.185842 -137.226889 -5.417728 8.484597 2.797453 -13.056146 -63.909382 6.764669 -35.545841 71.789300 -36.506330 -4.089950 -6.665102 -0.008026 -0.489104 0.700899 -0.207286 2.410143 -66.726016 16.028451 42.027960 66.541608 34.690674 -18.765310 -11.427654 3.604757 0.072669 -0.836456 0.018370
-206.526624 57.615562 -67.778960 160.179497 -8.154776 -0.311070 3.373194 6.551539 1.514508 0.157000 0.305323 0.030053 0.274914 0.534529 0.053184 3.319769 6.346846 0.803254 1.311545 18.319534 -2.229554 3.129039 -1.690524 -4.518527 1.309852 7.183899 0.238297 1.070297 -6.956973 -9.495388 -58.005502 -69.465890 98.375697 -1.188606 3.064020 -4.900086 -4.345160 7.507597 -1.356442 10.628654 -2.993567 6.248731 95.340546 -74.166596 -136.990328 -5.413951 8.404607 2.685324 -13.073642 -63.836958 6.708487 -35.537553 71.794554 -36.493215 -4.080592 -6.669520 -0.005667 -0.492846 0.698561 -0.205188 2.341292 -66.672745 16.017423 42.053331 66.533550 34.733073 -18.758171 -11.416552 3.607210 0.088695 -0.839609 0.018548
